<svg width="105" height="16" viewBox="0 0 105 16" fill="none" xmlns="http://www.w3.org/2000/svg">
<path d="M12.6967 14.8536H9.25823C8.58073 12.1426 6.23179 10.0936 3.36996 9.86427V14.8536H0V0.371356H3.36996V6.48475L3.37155 6.48634C8.09863 6.73749 11.9544 10.2736 12.6967 14.8536Z" fill="#0066FF"/>
<path d="M12.6664 0.371356C12.6632 0.475423 12.6579 0.57949 12.651 0.684088C12.4806 3.32133 11.3013 5.65328 9.51413 7.3279C8.52337 6.6005 7.41474 6.02388 6.22169 5.63363C7.94835 4.53881 9.14565 2.66242 9.28794 0.466399L9.29379 0.378259L12.6664 0.371356Z" fill="#0066FF"/>
<path d="M28.5061 0C24.3018 0 20.8936 3.40822 20.8936 7.61251C20.8936 11.8168 24.3018 15.225 28.5061 15.225C32.7104 15.225 36.1186 11.8168 36.1186 7.61251C36.1186 3.40822 32.7104 0 28.5061 0ZM28.5061 11.5934C26.3071 11.5934 24.5247 9.81095 24.5247 7.61195C24.5247 5.41295 26.3071 3.63047 28.5061 3.63047C30.7051 3.63047 32.4876 5.41295 32.4876 7.61195C32.4876 9.81095 30.7051 11.5934 28.5061 11.5934Z" fill="#0066FF"/>
<path d="M18.3636 5.11913H14.9936V14.8536H18.3636V5.11913Z" fill="#0066FF"/>
<path d="M18.3636 0.41434H14.9936V3.89261H18.3636V0.41434Z" fill="#0066FF"/>
<path fill-rule="evenodd" clip-rule="evenodd" d="M39.8246 1.28026C40.8676 0.43594 42.322 0.0849609 44.0442 0.0849609C45.2747 0.0849609 46.3602 0.272183 47.2582 0.696196C48.1164 1.08864 48.8122 1.63487 49.2859 2.35945C49.7469 3.04509 50.0088 3.80101 50.0576 4.61431L50.1129 5.53649H46.9051L46.8131 4.77008C46.7654 4.37231 46.5758 4.02425 46.1631 3.70539L46.1535 3.6979C45.8011 3.41765 45.1517 3.19969 44.0442 3.19969C43.3581 3.19969 42.8598 3.26826 42.5181 3.37566C42.1385 3.49496 41.9174 3.63097 41.7952 3.74673L41.7942 3.74765C41.6436 3.88989 41.567 4.01098 41.5286 4.10636C41.4775 4.27453 41.4581 4.4141 41.4581 4.52896C41.4581 4.71297 41.5102 4.82296 41.6194 4.92305C41.8468 5.1011 42.1691 5.27578 42.6113 5.43162C43.1173 5.59162 43.6777 5.7411 44.2936 5.87936C44.9494 6.02658 45.5987 6.1938 46.2414 6.38102C46.9298 6.56439 47.5669 6.80637 48.1488 7.11065C48.7841 7.42252 49.3181 7.8419 49.723 8.37927C50.1915 8.98258 50.3929 9.71863 50.3929 10.5182C50.3929 11.9807 49.8171 13.1839 48.654 14.0147L48.6473 14.0195C47.5342 14.7986 46.0802 15.139 44.378 15.139C43.0289 15.139 41.8597 14.9616 40.9145 14.5587L40.9035 14.554C39.9811 14.1457 39.2363 13.5627 38.7228 12.7843L38.7192 12.7788L38.7157 12.7733C38.2424 12.0319 37.9714 11.201 37.8948 10.2972L37.8149 9.35362H41.1109L41.1619 10.1694C41.1901 10.6211 41.3311 10.9244 41.5425 11.1455C41.8009 11.4019 42.1612 11.6162 42.6603 11.7652C43.1987 11.922 43.8021 12.0046 44.4762 12.0046C45.4849 12.0046 46.1808 11.8291 46.6391 11.5598C47.0154 11.3276 47.18 11.0349 47.18 10.5772C47.18 10.3549 47.1144 10.2402 46.9996 10.1437L46.9851 10.1316L46.9712 10.1189C46.7698 9.93416 46.4603 9.75057 46.0016 9.59394L45.9953 9.5918C45.5066 9.42074 44.9622 9.26562 44.3604 9.12771L44.352 9.1258L44.3437 9.12372C43.7112 8.96559 43.0722 8.80091 42.4268 8.62968L42.4225 8.62851C41.7458 8.44524 41.1111 8.21064 40.5208 7.92267L40.5131 7.91893C39.8916 7.6082 39.3633 7.19963 38.9486 6.68538L38.939 6.67347L38.9298 6.66124C38.4792 6.06042 38.2845 5.33505 38.2845 4.5486C38.2845 3.23075 38.8046 2.11921 39.8193 1.28457L39.8246 1.28026ZM66.8392 0.663218C67.7691 0.273269 68.782 0.0849609 69.866 0.0849609C70.95 0.0849609 71.9629 0.27327 72.8927 0.663218C73.8108 1.04822 74.6067 1.59384 75.2696 2.30089C75.9359 2.9977 76.4477 3.79981 76.8024 4.70133C77.1597 5.60951 77.3341 6.58257 77.3341 7.61197C77.3341 8.63003 77.1591 9.60107 76.8041 10.5181L76.8024 10.5226C76.4477 11.4241 75.9359 12.2262 75.2696 12.923C74.6068 13.6301 73.8108 14.1757 72.8927 14.5607C71.9629 14.9507 70.95 15.139 69.866 15.139C68.782 15.139 67.7691 14.9507 66.8392 14.5607C65.9213 14.1758 65.1205 13.6309 64.4461 12.9266L64.4394 12.9195C63.7869 12.2226 63.2833 11.4215 62.9296 10.5226L62.9278 10.5181C62.5728 9.60108 62.3979 8.63003 62.3979 7.61197C62.3979 6.58257 62.5723 5.60951 62.9296 4.70133C63.2833 3.80245 63.7869 3.00142 64.4394 2.30446L64.4461 2.29734C65.1205 1.59296 65.9213 1.04818 66.8392 0.663218ZM50.4897 0.242056H62.7749V3.37642H58.2387V14.9819H55.0258V3.37642H50.4897V0.242056ZM78.8205 0.242056H85.9154C87.4139 0.242056 88.7048 0.65724 89.6878 1.57343C90.6911 2.49598 91.1646 3.73047 91.1646 5.17698C91.1646 6.11523 90.9832 6.96614 90.535 7.65126C90.1473 8.26285 89.6419 8.74785 89.0194 9.0843L89.0114 9.08868L89.0032 9.09289C88.8342 9.17967 88.6643 9.25974 88.4936 9.33294L92.1749 14.9819H88.3415L85.1996 9.99409H82.0334V14.9819H78.8205V0.242056ZM93.6967 0.242056H105V3.39606H96.9096V6.01533H104.136V9.18897H96.9096V11.8279H105V14.9819H93.6967V0.242056ZM69.866 3.2586C68.953 3.2586 68.2052 3.46258 67.5896 3.83819L67.5804 3.84382C66.9453 4.22059 66.463 4.72407 66.1199 5.36541C65.7863 6.01309 65.6108 6.75572 65.6108 7.61197C65.6108 8.45189 65.785 9.19637 66.1212 9.86109C66.4647 10.5019 66.9479 11.0128 67.5851 11.4026C68.2013 11.7669 68.9509 11.9653 69.866 11.9653C70.7982 11.9653 71.5452 11.7652 72.1441 11.4043C72.783 11.0141 73.2593 10.5034 73.5899 9.86358L73.5924 9.85877C73.9411 9.19406 74.1212 8.45065 74.1212 7.61197C74.1212 6.75794 73.9402 6.01729 73.5951 5.37042L73.5898 5.36039C73.26 4.72215 72.7861 4.22017 72.1516 3.84377L72.1441 3.83931L72.1367 3.83471C71.539 3.46374 70.7948 3.2586 69.866 3.2586ZM82.0334 3.37642V6.85972H85.6602C86.0417 6.85972 86.436 6.8016 86.8457 6.67979C87.18 6.58041 87.4455 6.41108 87.6621 6.16846L87.6633 6.16713C87.821 5.99128 87.9517 5.69812 87.9517 5.17698C87.9517 4.57401 87.7584 4.18438 87.4188 3.90005L87.4098 3.8925C87.0414 3.57553 86.514 3.37642 85.7387 3.37642H82.0334Z" fill="#001433"/>
</svg>